<svg width="30" height="30" viewBox="0 0 30 30" fill="none" xmlns="http://www.w3.org/2000/svg">
<path fill-rule="evenodd" clip-rule="evenodd" d="M2.33333 0.75H7.875C8.74583 0.75 9.45833 1.4625 9.45833 2.33333C9.45833 4.3125 9.775 6.2125 10.3608 7.98583C10.535 8.54 10.4083 9.1575 9.965 9.60083L6.48167 13.0842C8.76167 17.565 12.435 21.2225 16.9158 23.5183L20.3992 20.035C20.7158 19.7342 21.1117 19.5758 21.5233 19.5758C21.6817 19.5758 21.8558 19.5917 22.0142 19.655C23.7875 20.2408 25.7033 20.5575 27.6667 20.5575C28.5375 20.5575 29.25 21.27 29.25 22.1408V27.6667C29.25 28.5375 28.5375 29.25 27.6667 29.25C12.7992 29.25 0.75 17.2008 0.75 2.33333C0.75 1.4625 1.4625 0.75 2.33333 0.75ZM6.355 3.91667C6.45 5.32583 6.6875 6.70333 7.0675 8.0175L5.1675 9.9175C4.51833 8.0175 4.10667 6.00667 3.96417 3.91667H6.355ZM21.9667 22.9483C23.3125 23.3283 24.69 23.5658 26.0833 23.6608V26.02C23.9933 25.8775 21.9825 25.4658 20.0667 24.8325L21.9667 22.9483Z" fill="#1D4BEF"/>
</svg>
