<svg width="24" height="24" viewBox="0 0 24 24" fill="none" xmlns="http://www.w3.org/2000/svg">
<path fill-rule="evenodd" clip-rule="evenodd" d="M19.9999 4V8.69L23.3099 12L19.9999 15.31V20H15.3099L11.9999 23.31L8.68994 20H3.99994V15.31L0.689941 12L3.99994 8.69V4H8.68994L11.9999 0.690002L15.3099 4H19.9999ZM17.9999 18V14.48L20.4799 12L17.9999 9.52V6H14.4799L11.9999 3.52L9.51994 6H5.99994V9.52L3.51994 12L5.99994 14.48V18H9.51994L11.9999 20.48L14.4799 18H17.9999ZM11.9999 6.5C8.96994 6.5 6.49994 8.97 6.49994 12C6.49994 15.03 8.96994 17.5 11.9999 17.5C15.0299 17.5 17.4999 15.03 17.4999 12C17.4999 8.97 15.0299 6.5 11.9999 6.5ZM8.49994 12C8.49994 13.93 10.0699 15.5 11.9999 15.5C13.9299 15.5 15.4999 13.93 15.4999 12C15.4999 10.07 13.9299 8.5 11.9999 8.5C10.0699 8.5 8.49994 10.07 8.49994 12Z" fill="#1d4bef"/>
</svg>
