<svg width="64" height="64" viewBox="0 0 64 64" fill="none" xmlns="http://www.w3.org/2000/svg">
<path d="M32.0577 0.239929C14.4196 0.239929 0.116943 14.7838 0.116943 32.726C0.116943 47.0794 9.26894 59.2568 21.96 63.5524C23.5563 63.8532 24.1423 62.8477 24.1423 61.9896C24.1423 61.215 24.1127 58.6559 24.099 55.9413C15.213 57.9065 13.338 52.1083 13.338 52.1083C11.885 48.3533 9.79152 47.3549 9.79152 47.3549C6.89354 45.3386 10.01 45.38 10.01 45.38C13.2174 45.6086 14.9062 48.7277 14.9062 48.7277C17.755 53.6942 22.3784 52.2584 24.201 51.4283C24.4877 49.3292 25.3155 47.895 26.2289 47.0843C19.1345 46.2628 11.6766 43.4772 11.6766 31.0292C11.6766 27.4824 12.9243 24.5844 14.9676 22.3094C14.636 21.4906 13.5427 18.187 15.277 13.7122C15.277 13.7122 17.9592 12.8391 24.063 17.0422C26.6108 16.3224 29.3433 15.9614 32.0577 15.949C34.7722 15.9614 37.5067 16.3224 40.0593 17.0422C46.1557 12.8391 48.8342 13.7122 48.8342 13.7122C50.5727 18.187 49.4789 21.4906 49.1473 22.3094C51.1953 24.5844 52.4346 27.4824 52.4346 31.0292C52.4346 43.5068 44.9624 46.2542 37.85 47.0584C38.9956 48.0666 40.0164 50.0436 40.0164 53.0745C40.0164 57.4207 39.9794 60.9191 39.9794 61.9896C39.9794 62.8542 40.5544 63.8671 42.1734 63.5481C54.8576 59.2476 63.9979 47.0746 63.9979 32.726C63.9979 14.7838 49.6974 0.239929 32.0577 0.239929" fill="#1D4BEF"/>
<path d="M12.2145 46.8831C12.1442 47.045 11.8945 47.0929 11.6671 46.9821C11.4354 46.8761 11.3053 46.656 11.3804 46.4941C11.4492 46.3279 11.6994 46.2822 11.9305 46.3924C12.1627 46.499 12.2949 46.7211 12.2145 46.8831" fill="#1D4BEF"/>
<path d="M13.5083 48.3506C13.356 48.4943 13.0582 48.4275 12.8562 48.2005C12.6473 47.974 12.6081 47.6712 12.7626 47.5254C12.9197 47.3817 13.2084 47.449 13.4179 47.6755C13.6268 47.9046 13.6676 48.2054 13.5083 48.3506" fill="#1D4BEF"/>
<path d="M14.7677 50.2217C14.572 50.3599 14.252 50.2303 14.0542 49.9414C13.8585 49.6525 13.8585 49.3061 14.0584 49.1673C14.2568 49.0285 14.572 49.1533 14.7725 49.44C14.9677 49.7332 14.9677 50.0802 14.7677 50.2217" fill="#1D4BEF"/>
<path d="M16.493 52.0292C16.3179 52.2256 15.945 52.1729 15.6721 51.905C15.3928 51.643 15.3151 51.2713 15.4907 51.0749C15.6678 50.878 16.0429 50.9334 16.3179 51.1992C16.5951 51.4606 16.6797 51.835 16.493 52.0292" fill="#1D4BEF"/>
<path d="M18.8732 53.0788C18.796 53.3333 18.4368 53.4489 18.075 53.3408C17.7138 53.2294 17.4774 52.9314 17.5503 52.6743C17.6255 52.4182 17.9862 52.2977 18.3506 52.4134C18.7113 52.5242 18.9483 52.8201 18.8732 53.0788" fill="#1D4BEF"/>
<path d="M21.4871 53.2735C21.4961 53.5414 21.1893 53.7636 20.8095 53.7679C20.4276 53.7771 20.1187 53.5603 20.1145 53.2967C20.1145 53.0261 20.4144 52.8061 20.7963 52.7996C21.1761 52.7921 21.4871 53.0073 21.4871 53.2735" fill="#1D4BEF"/>
<path d="M23.9197 52.8523C23.9652 53.1138 23.7012 53.3822 23.3241 53.4532C22.9533 53.5226 22.6101 53.3612 22.563 53.1019C22.517 52.834 22.7857 52.5656 23.1559 52.4962C23.5336 52.4295 23.8716 52.5866 23.9197 52.8523" fill="#1D4BEF"/>
</svg>
