<svg width="56" height="53" viewBox="0 0 56 53" fill="none" xmlns="http://www.w3.org/2000/svg">
<path fill-rule="evenodd" clip-rule="evenodd" d="M48.6208 0C47.8625 0 47.1333 0.291667 46.55 0.845833L20.4167 26.9792L28.4375 35L54.5708 8.86667C55.7083 7.72917 55.7083 5.89167 54.5708 4.75417L50.6625 0.845833C50.0792 0.2625 49.35 0 48.6208 0ZM14.5833 37.9167C16.1875 37.9167 17.5 39.2292 17.5 40.8333C17.5 44.0417 14.875 46.6667 11.6667 46.6667C11.1708 46.6667 10.7042 46.6083 10.2083 46.5208C11.1125 44.9167 11.6667 42.9917 11.6667 40.8333C11.6667 39.2292 12.9792 37.9167 14.5833 37.9167ZM5.83333 40.8333C5.83333 35.9917 9.74167 32.0833 14.5833 32.0833C19.425 32.0833 23.3333 35.9917 23.3333 40.8333C23.3333 47.2792 18.1125 52.5 11.6667 52.5C7.2625 52.5 2.68333 50.225 0 46.6667C2.45 46.6667 5.83333 44.6542 5.83333 40.8333Z" fill="#1D4BEF"/>
</svg>
