<svg width="64" height="64" viewBox="0 0 64 64" fill="none" xmlns="http://www.w3.org/2000/svg"><g clip-path="url(#clip0)"><path d="M17.16 25.1843C16.6057 24.77 16.05 24.5629 15.4957 24.5629H13.0043V39.4871H15.4971C16.0514 39.4871 16.6071 39.28 17.1614 38.8657C17.7157 38.4514 17.9929 37.83 17.9929 37V27.05C17.9914 26.2214 17.7129 25.5986 17.16 25.1843V25.1843ZM57.7286 0H6.27143C2.81429 0 0.00857143 2.79857 0 6.25714V57.7429C0.00857143 61.2014 2.81429 64 6.27143 64H57.7286C61.1871 64 63.9914 61.2014 64 57.7429V6.25714C63.9914 2.79857 61.1857 0 57.7286 0V0ZM22.0286 37.0271C22.0286 39.7143 20.37 43.7857 15.12 43.7771H8.49143V20.14H15.26C20.3229 20.14 22.0257 24.2057 22.0271 26.8943L22.0286 37.0271ZM36.4114 24.3614H28.8V29.85H33.4529V34.0743H28.8V39.5614H36.4129V43.7857H27.53C25.9357 43.8271 24.61 42.5671 24.57 40.9729V23.1C24.5314 21.5071 25.7929 20.1843 27.3857 20.1443H36.4129L36.4114 24.3614ZM51.2171 40.8314C49.3314 45.2243 45.9529 44.35 44.44 40.8314L38.9357 20.1457H43.5886L47.8329 36.3914L52.0571 20.1457H56.7114L51.2171 40.8314Z" fill="#1D4BEF"/></g><defs><clipPath id="clip0"><rect width="64" height="64" fill="white"/></clipPath></defs></svg>
