<svg width="1200" height="286" viewBox="0 0 1200 286" fill="none" xmlns="http://www.w3.org/2000/svg">
<path fill-rule="evenodd" clip-rule="evenodd" d="M-0.00012207 33.9411C-0.00012207 33.9411 62.9997 -2.05887 113.5 3.94113C164 9.94113 200 69.9411 300 57.9411C400 45.9411 500 21.9411 600 9.94112C700 -2.05888 800 -2.05887 900 3.94113C1000 9.94113 1100 21.9411 1150 27.9411L1200 33.9411V285.941H1150C1100 285.941 1000 285.941 900 285.941C800 285.941 700 285.941 600 285.941C500 285.941 400 285.941 300 285.941C200 285.941 99.9999 285.941 49.9999 285.941H-0.00012207V33.9411Z" fill="white" fill-opacity="0.4"/>
</svg>
