<svg width="1500" height="416" viewBox="0 0 1500 416" fill="none" xmlns="http://www.w3.org/2000/svg">
<path fill-rule="evenodd" clip-rule="evenodd" d="M0 329.103L50 312.787C100 296.471 200 263.839 300 207.276C400 149.626 500 68.0457 600 27.7993C700 -13.5348 800 -13.5348 900 60.4315C1000 133.31 1100 280.155 1200 321.489C1300 361.736 1400 296.471 1450 263.839L1500 231.207V427H1450C1400 427 1300 427 1200 427C1100 427 1000 427 900 427C800 427 700 427 600 427C500 427 400 427 300 427C200 427 100 427 50 427H0V329.103Z" fill="white" fill-opacity="0.4"/>
</svg>
